<svg xmlns="http://www.w3.org/2000/svg" width="94.404" height="24" viewBox="0 0 94.404 24"><g fill="#FFF"><path d="M39.635 13.689a9.796 9.796 0 0 1-.757 1.689 6.92 6.92 0 0 1-.868 1.207 4.698 4.698 0 0 1-1.848 1.268c-.297.109-.58.184-.85.223a5.132 5.132 0 0 1-.722.059c-.359 0-.696-.055-1.009-.164s-.585-.281-.815-.516-.412-.531-.546-.893c-.133-.359-.199-.793-.199-1.301 0-.219.016-.461.047-.723.032-.262.078-.545.141-.85l1.443-6.745h-.798l.199-.962h.786l.728-3.32 3.554-.481-.82 3.801h1.442l-.188.962h-1.443l-1.536 7.202c-.039.133-.064.264-.076.393s-.018.256-.018.383c0 .336.078.568.234.697s.402.193.739.193c.234 0 .463-.053.686-.158.224-.105.429-.252.616-.439s.355-.414.505-.676c.148-.262.27-.545.363-.85h1.01z"/><path d="M48.667 13.689c-.336.563-.722 1.11-1.155 1.643a8.709 8.709 0 0 1-1.467 1.418 7.24 7.24 0 0 1-1.806 1.004 6.021 6.021 0 0 1-2.176.381 5.154 5.154 0 0 1-1.549-.217 3.062 3.062 0 0 1-1.185-.674 2.959 2.959 0 0 1-.757-1.18c-.176-.48-.264-1.062-.264-1.742 0-.461.047-.992.141-1.595s.242-1.22.445-1.853c.203-.634.473-1.256.81-1.866a7.36 7.36 0 0 1 1.22-1.636 5.644 5.644 0 0 1 1.678-1.161c.642-.294 1.372-.44 2.193-.44.54 0 .979.064 1.32.193.34.129.609.299.809.51.2.211.336.456.411.733.074.278.111.565.111.863 0 .696-.152 1.343-.458 1.941a5.169 5.169 0 0 1-1.226 1.566 6.32 6.32 0 0 1-1.766 1.079 6.52 6.52 0 0 1-2.076.482c-.016.18-.029.35-.041.51s-.018.311-.018.451c0 .406.037.742.111 1.004s.184.467.329.615c.145.148.324.252.539.311s.468.088.757.088c.477 0 .909-.063 1.296-.188.388-.125.749-.297 1.085-.516s.655-.477.956-.774.604-.614.909-.95h.824zm-6.558-1.701c.454-.03.892-.16 1.314-.386a4.002 4.002 0 0 0 1.114-.886 4.44 4.44 0 0 0 .769-1.244c.191-.465.287-.948.287-1.448 0-.298-.043-.536-.129-.716-.086-.18-.243-.27-.47-.27-.305 0-.604.147-.897.44-.293.293-.568.674-.827 1.144-.258.469-.486.999-.686 1.589s-.357 1.183-.475 1.777z"/><path d="M55.271 13.689a9.796 9.796 0 0 1-.757 1.689 6.92 6.92 0 0 1-.868 1.207 4.722 4.722 0 0 1-1.848 1.268c-.297.109-.58.184-.85.223a5.12 5.12 0 0 1-.722.059c-.36 0-.696-.055-1.009-.164s-.584-.281-.815-.516-.412-.531-.546-.893c-.133-.359-.199-.793-.199-1.301 0-.219.016-.461.047-.723s.078-.545.141-.85l2.569-12.036 3.554-.481-2.756 12.974c-.039.133-.064.264-.076.393s-.018.256-.018.383c0 .336.078.568.234.697s.402.193.739.193c.234 0 .463-.053.687-.158.223-.105.428-.252.615-.439s.355-.414.504-.676.27-.545.364-.85h1.01z"/><path d="M64.304 13.689c-.337.563-.722 1.11-1.155 1.643a8.709 8.709 0 0 1-1.467 1.418 7.211 7.211 0 0 1-1.807 1.004 6.013 6.013 0 0 1-2.176.381c-.57 0-1.087-.072-1.549-.217-.461-.145-.855-.369-1.184-.674s-.581-.698-.757-1.18c-.176-.48-.265-1.062-.265-1.742 0-.461.047-.992.141-1.595s.242-1.22.447-1.853c.203-.634.473-1.256.809-1.866a7.333 7.333 0 0 1 1.221-1.636 5.627 5.627 0 0 1 1.677-1.161c.642-.294 1.372-.44 2.193-.44.54 0 .979.064 1.319.193.341.129.61.299.81.51.2.211.337.456.411.733.074.278.111.565.111.863a4.21 4.21 0 0 1-.457 1.941c-.306.598-.715 1.12-1.227 1.566s-1.101.806-1.766 1.079a6.52 6.52 0 0 1-2.076.482c-.016.18-.029.35-.041.51s-.016.311-.016.452c0 .406.037.742.111 1.004s.184.467.328.615.325.252.54.311.468.088.757.088c.477 0 .909-.063 1.296-.188.388-.125.749-.297 1.085-.516s.655-.477.957-.774c.301-.298.604-.614.908-.95h.822zm-6.558-1.701c.453-.03.893-.16 1.314-.386a4.002 4.002 0 0 0 1.114-.886c.32-.364.577-.778.769-1.244s.287-.948.287-1.448c0-.298-.043-.536-.129-.716-.086-.18-.242-.27-.47-.27-.305 0-.604.147-.897.44s-.568.674-.826 1.144c-.258.469-.487.999-.687 1.589s-.358 1.183-.475 1.777z"/><path d="M77.652 13.689c-.336.978-.727 1.76-1.173 2.346-.445.586-.903 1.037-1.372 1.35s-.923.516-1.361.609a5.523 5.523 0 0 1-1.137.141c-.36 0-.697-.055-1.01-.164s-.584-.281-.814-.516a2.453 2.453 0 0 1-.546-.893c-.134-.359-.199-.793-.199-1.301 0-.219.015-.461.047-.723.03-.262.077-.545.141-.85L72.727 1.9c-.165-.07-.345-.129-.54-.176a8.485 8.485 0 0 0-1.073-.187 3.882 3.882 0 0 0-.346-.023c-.133 0-.28.023-.44.07s-.316.139-.469.275a2.026 2.026 0 0 0-.423.581c-.129.25-.232.575-.311.974l-.527 2.569h2.24l-.199.962H68.41l-2.746 12.973c-.172.859-.424 1.557-.756 2.088s-.7.947-1.104 1.244a3.418 3.418 0 0 1-1.26.598 5.546 5.546 0 0 1-1.243.152c-.359 0-.709-.063-1.05-.188s-.644-.301-.909-.527-.479-.498-.639-.816c-.16-.316-.24-.67-.24-1.061 0-.557.107-1.023.321-1.402.216-.379.511-.703.886-.973.376-.271.816-.5 1.32-.688s1.046-.367 1.625-.539L65.5 4.082c.172-.86.424-1.556.757-2.088s.704-.946 1.114-1.244c.41-.297.835-.496 1.273-.598A5.493 5.493 0 0 1 69.875 0c.549 0 1.084.046 1.607.141.523.093 1.048.217 1.572.369.523.152 1.047.328 1.572.528.523.2 1.059.405 1.606.616l-2.64 12.493c-.039.133-.064.264-.076.393s-.016.255-.016.382c0 .336.08.568.24.697s.409.193.746.193c.234 0 .463-.053.686-.158s.428-.252.616-.439c.188-.188.355-.414.504-.676s.267-.545.352-.85h1.008zm-15.201 4.903a9.834 9.834 0 0 0-1.051.417 3.94 3.94 0 0 0-.844.528 2.34 2.34 0 0 0-.564.674c-.137.25-.205.536-.205.857a.62.62 0 0 0 .071.281c.046.094.113.178.199.252s.188.137.305.188.247.076.387.076c.118 0 .243-.029.376-.088s.264-.16.393-.305.25-.339.364-.581c.113-.243.204-.544.275-.903l.294-1.396z"/><path d="M84.069 13.689a9.873 9.873 0 0 1-.757 1.689 6.867 6.867 0 0 1-.868 1.207 4.698 4.698 0 0 1-1.847 1.268c-.298.109-.582.184-.852.223s-.51.059-.721.059c-.359 0-.697-.055-1.01-.164s-.584-.281-.814-.516-.412-.531-.545-.893c-.133-.359-.2-.793-.2-1.301 0-.219.017-.461.047-.723.031-.262.079-.545.141-.85l1.631-7.707h3.46l-1.724 8.164c-.039.133-.065.264-.077.393s-.017.256-.017.383c0 .336.078.568.234.697s.403.193.739.193c.234 0 .463-.053.686-.158.224-.105.428-.252.616-.439.188-.188.356-.414.505-.676s.27-.545.363-.85h1.01zM82.58 2.792a1.831 1.831 0 0 1-.569 1.343c-.176.168-.38.301-.61.399s-.479.146-.745.146a1.901 1.901 0 0 1-1.35-.545 1.865 1.865 0 0 1-.55-1.343c0-.266.048-.514.146-.745a1.95 1.95 0 0 1 1.008-1.026c.231-.102.479-.153.746-.153.266 0 .514.051.744.153s.435.24.61.417a2 2 0 0 1 .417.609c.102.231.153.479.153.745z"/><path d="M92.668 14.146c-.039.133-.068.262-.088.387s-.029.255-.029.389c0 .241.063.451.188.627s.375.264.75.264c.141 0 .256-.004.347-.012.09-.008.164-.02.223-.035s.106-.033.147-.053a.864.864 0 0 1 .129-.053c-.032.43-.136.799-.312 1.109-.176.309-.382.564-.616.768s-.471.354-.709.451-.44.146-.604.146c-1.001 0-1.755-.236-2.265-.709-.508-.474-.762-1.148-.762-2.023 0-.375.047-.794.141-1.256l.199-.938a2.84 2.84 0 0 0 .076-.458c.012-.148.018-.289.018-.422 0-.352-.063-.634-.188-.845s-.352-.316-.68-.316c-.274 0-.554.08-.84.24-.285.16-.596.377-.932.651l-1.256 5.935h-3.46l3.483-16.34 3.555-.481-1.794 8.458 4.634-3.647h2.382l-4.811 3.343a3.12 3.12 0 0 1 .799-.105c.445 0 .834.074 1.166.223s.608.352.827.61c.22.258.382.557.487.897s.158.702.158 1.085c0 .148-.006.299-.018.452s-.037.307-.076.464l-.269 1.194z"/></g><path fill="#E6676C" d="M29.257 2.84H14.629v14.629z"/><path fill="#FFA086" d="M0 2.84h14.628v14.629z"/></svg>