<svg xmlns="http://www.w3.org/2000/svg" width="94" height="24" viewBox="0 0 94 24"><g fill="#982B61"><path d="M39.229 13.689a9.819 9.819 0 0 1-.757 1.688 6.78 6.78 0 0 1-.868 1.207 4.637 4.637 0 0 1-.927.799 4.808 4.808 0 0 1-.921.47c-.297.108-.58.184-.85.223a5.145 5.145 0 0 1-.723.059c-.358 0-.695-.055-1.009-.164a2.073 2.073 0 0 1-.814-.516 2.489 2.489 0 0 1-.546-.893c-.134-.359-.199-.793-.199-1.302 0-.219.016-.461.047-.723.032-.263.078-.545.141-.851l1.443-6.745h-.798l.199-.962h.785l.729-3.32 3.554-.481-.82 3.801h1.442l-.187.964h-1.443l-1.536 7.202a2.17 2.17 0 0 0-.076.394 4.123 4.123 0 0 0-.018.383c0 .336.078.568.233.697.156.129.402.192.739.192.234 0 .463-.053.687-.158.224-.104.429-.252.615-.438.188-.187.355-.414.506-.676.147-.263.27-.545.362-.851h1.01v.001z"/><path d="M48.262 13.689a14.127 14.127 0 0 1-1.154 1.643 8.753 8.753 0 0 1-1.468 1.418 7.24 7.24 0 0 1-1.806 1.004 6.021 6.021 0 0 1-2.176.381 5.154 5.154 0 0 1-1.549-.217c-.462-.145-.856-.369-1.186-.674s-.581-.698-.757-1.18c-.176-.48-.264-1.063-.264-1.742 0-.461.047-.992.141-1.596.094-.603.242-1.22.445-1.853.203-.634.473-1.256.81-1.866a7.36 7.36 0 0 1 1.22-1.636 5.649 5.649 0 0 1 1.679-1.161c.642-.294 1.372-.44 2.192-.44.54 0 .979.064 1.32.193.34.129.609.299.809.51.2.211.337.456.411.733.074.278.111.565.111.863 0 .696-.152 1.343-.458 1.941a5.169 5.169 0 0 1-1.226 1.566 6.34 6.34 0 0 1-1.767 1.079 6.54 6.54 0 0 1-2.076.482c-.016.18-.028.35-.041.51-.012.16-.018.311-.018.451 0 .405.037.741.111 1.004.073.262.184.467.328.614.146.148.324.252.539.312.216.059.469.088.758.088.477 0 .908-.063 1.296-.188s.749-.298 1.085-.517c.336-.22.654-.478.956-.774.301-.297.604-.613.909-.949h.826zm-6.558-1.701a3.2 3.2 0 0 0 1.313-.386 3.988 3.988 0 0 0 1.114-.886c.32-.364.576-.778.77-1.244.19-.465.286-.948.286-1.448 0-.298-.043-.536-.129-.716-.086-.18-.242-.27-.47-.27-.305 0-.604.147-.896.44s-.568.674-.827 1.144c-.258.469-.486.999-.687 1.589s-.356 1.183-.474 1.777z"/><path d="M54.866 13.689c-.228.647-.479 1.211-.757 1.688s-.567.879-.868 1.207a4.688 4.688 0 0 1-1.849 1.269c-.297.108-.58.184-.85.223a5.12 5.12 0 0 1-.722.059c-.36 0-.696-.055-1.01-.164a2.08 2.08 0 0 1-.814-.516 2.475 2.475 0 0 1-.546-.893c-.133-.359-.199-.793-.199-1.302 0-.219.016-.461.047-.723.031-.263.078-.545.142-.851L50.008 1.65l3.555-.481-2.757 12.974a2.085 2.085 0 0 0-.075.394 3.806 3.806 0 0 0-.019.383c0 .336.078.568.234.697.155.129.401.192.738.192.234 0 .464-.053.688-.158.223-.104.428-.252.615-.438.187-.187.354-.414.504-.676.148-.263.27-.545.364-.851h1.01v.003z"/><path d="M63.899 13.689a14.383 14.383 0 0 1-1.155 1.643 8.747 8.747 0 0 1-1.467 1.418 7.218 7.218 0 0 1-1.808 1.004 6.013 6.013 0 0 1-2.176.381c-.57 0-1.087-.072-1.549-.217a3.076 3.076 0 0 1-1.185-.674 2.98 2.98 0 0 1-.757-1.18c-.176-.48-.265-1.063-.265-1.742 0-.461.047-.992.141-1.596.095-.603.242-1.22.447-1.853.203-.634.473-1.256.809-1.866a7.337 7.337 0 0 1 1.222-1.636 5.627 5.627 0 0 1 1.677-1.161c.642-.294 1.372-.44 2.193-.44.54 0 .979.064 1.318.193.341.129.61.299.811.51s.337.456.411.733c.073.278.11.565.11.863 0 .696-.151 1.343-.457 1.941a5.203 5.203 0 0 1-1.227 1.566 6.325 6.325 0 0 1-1.767 1.079 6.535 6.535 0 0 1-2.075.482c-.017.18-.029.35-.041.51-.013.16-.017.311-.017.451 0 .406.037.742.111 1.004.074.263.184.467.328.615.144.148.325.252.54.312.215.059.468.088.757.088.477 0 .909-.063 1.296-.188.388-.125.749-.297 1.085-.516s.655-.477.957-.773c.301-.299.604-.615.908-.951h.825zm-6.558-1.701c.453-.03.894-.16 1.314-.386a3.984 3.984 0 0 0 1.113-.886c.32-.364.577-.778.77-1.244.192-.466.287-.948.287-1.448 0-.298-.043-.536-.129-.716-.086-.18-.242-.27-.471-.27-.305 0-.604.147-.896.44s-.568.674-.826 1.144a9.87 9.87 0 0 0-.687 1.589 13.9 13.9 0 0 0-.475 1.777z"/><path d="M77.247 13.689c-.336.978-.728 1.76-1.173 2.346s-.903 1.037-1.372 1.35c-.469.313-.923.516-1.361.609a5.515 5.515 0 0 1-1.137.141c-.36 0-.697-.055-1.01-.164-.313-.109-.584-.281-.814-.516s-.413-.531-.546-.893c-.134-.359-.199-.793-.199-1.302 0-.219.016-.461.047-.723a9.03 9.03 0 0 1 .142-.851L72.322 1.9a3.488 3.488 0 0 0-.54-.176 8.616 8.616 0 0 0-1.073-.187 3.882 3.882 0 0 0-.346-.023c-.133 0-.28.023-.44.07s-.315.139-.469.275c-.152.137-.294.331-.423.581s-.232.575-.312.974l-.526 2.569h2.239l-.198.962h-2.229l-2.746 12.973c-.172.859-.424 1.557-.756 2.088s-.7.947-1.104 1.244a3.414 3.414 0 0 1-1.261.598 5.531 5.531 0 0 1-1.242.152c-.358 0-.709-.063-1.05-.188s-.644-.302-.909-.527a2.606 2.606 0 0 1-.639-.816c-.16-.316-.24-.67-.24-1.061 0-.557.107-1.023.321-1.402.216-.379.511-.703.886-.973a5.58 5.58 0 0 1 1.32-.688 25.183 25.183 0 0 1 1.625-.538l2.885-13.725c.172-.86.424-1.556.757-2.088s.704-.946 1.114-1.244c.41-.297.835-.496 1.273-.598A5.493 5.493 0 0 1 69.47 0c.549 0 1.084.046 1.607.141.522.093 1.048.217 1.572.369.522.152 1.047.328 1.571.528.523.2 1.06.405 1.606.616l-2.641 12.493a2.183 2.183 0 0 0-.075.394 3.781 3.781 0 0 0-.017.382c0 .336.08.568.24.697s.409.193.746.193c.234 0 .463-.054.686-.158.224-.105.429-.252.616-.439a3.15 3.15 0 0 0 .504-.676c.149-.262.268-.545.353-.85h1.009zm-15.201 4.903a9.834 9.834 0 0 0-1.051.417 3.94 3.94 0 0 0-.844.528c-.239.199-.428.424-.564.674s-.205.536-.205.857a.62.62 0 0 0 .071.281.793.793 0 0 0 .199.252c.086.073.188.137.305.188s.247.076.387.076a.927.927 0 0 0 .376-.088c.133-.06.265-.16.394-.305.129-.146.25-.34.363-.582s.204-.543.275-.902l.294-1.396z"/><path d="M83.664 13.689c-.229.647-.479 1.211-.757 1.688s-.566.879-.868 1.207a4.665 4.665 0 0 1-.927.799 4.86 4.86 0 0 1-.92.47 4.347 4.347 0 0 1-.853.223c-.27.039-.51.059-.721.059-.359 0-.697-.055-1.01-.164a2.08 2.08 0 0 1-.814-.516 2.487 2.487 0 0 1-.545-.893c-.133-.359-.2-.793-.2-1.302 0-.219.018-.461.047-.723.031-.263.079-.545.142-.851l1.631-7.707h3.46l-1.724 8.164a2.092 2.092 0 0 0-.077.394 3.804 3.804 0 0 0-.018.383c0 .336.078.568.234.697s.403.192.739.192c.233 0 .463-.053.686-.158.224-.104.428-.252.616-.438.188-.188.355-.414.505-.676.149-.263.27-.545.363-.851h1.01v.003zM82.175 2.792a1.847 1.847 0 0 1-.568 1.343 2.05 2.05 0 0 1-.61.399c-.23.098-.479.146-.745.146a1.901 1.901 0 0 1-1.35-.545 1.865 1.865 0 0 1-.55-1.343 1.904 1.904 0 0 1 .55-1.354 1.92 1.92 0 0 1 .604-.417c.231-.102.479-.153.746-.153.266 0 .514.051.744.153a1.987 1.987 0 0 1 1.027 1.026c.101.231.152.479.152.745z"/><path d="M92.263 14.146a3.329 3.329 0 0 0-.088.387c-.02.125-.029.255-.029.389 0 .241.063.451.188.627s.375.264.75.264c.141 0 .256-.004.347-.012.09-.008.164-.02.224-.035a.74.74 0 0 0 .146-.053.864.864 0 0 1 .129-.053c-.031.43-.136.799-.312 1.109-.176.309-.382.563-.616.768s-.471.354-.709.451c-.238.097-.44.146-.604.146-1.001 0-1.756-.235-2.266-.709-.508-.474-.762-1.147-.762-2.022 0-.375.047-.795.141-1.256l.199-.938c.039-.156.064-.31.076-.458s.018-.289.018-.422c0-.352-.063-.634-.188-.845s-.353-.316-.681-.316c-.273 0-.554.08-.84.24-.285.16-.596.377-.932.651L85.2 17.993h-3.46l3.482-16.34 3.556-.481-1.794 8.458 4.634-3.647H94l-4.811 3.343c.266-.07.53-.105.799-.105.444 0 .834.074 1.166.223s.607.352.827.61c.22.258.382.557.486.897.105.34.158.702.158 1.085 0 .148-.006.299-.018.452a2.95 2.95 0 0 1-.076.464l-.268 1.194z"/></g><path fill="#E6676C" d="M29.257 2.84H14.629v14.629z"/><path fill="#FFA086" d="M0 2.84h14.628v14.629z"/></svg>